<?xml version="1.0" encoding="UTF-8"?>
<svg id="checkmark" width="305px" height="305px" version="1.1" xmlns="http://www.w3.org/2000/svg" xmlns:cc="http://creativecommons.org/ns#" xmlns:dc="http://purl.org/dc/elements/1.1/" xmlns:rdf="http://www.w3.org/1999/02/22-rdf-syntax-ns#">
 <metadata id="metadata11">
  <rdf:RDF>
   <cc:Work rdf:about="">
    <dc:format>image/svg+xml</dc:format>
    <dc:type rdf:resource="http://purl.org/dc/dcmitype/StillImage"/>
    <dc:title/>
   </cc:Work>
  </rdf:RDF>
 </metadata>
 <g id="g96" fill="#a00">
  <path id="path2" d="m152.5 0.0010071c-84.09 0-152.5 68.411-152.5 152.5 0 84.089 68.412 152.5 152.5 152.5 84.089 0 152.5-68.411 152.5-152.5 0-84.089-68.411-152.5-152.5-152.5zm0 280c-70.305 0-127.5-57.195-127.5-127.5 0-70.304 57.197-127.5 127.5-127.5 70.304 0 127.5 57.196 127.5 127.5 0 70.305-57.196 127.5-127.5 127.5z"/>
  <path id="rect75" d="m202.26 77.813 24.925 24.925-124.45 124.45-24.925-24.925z" stroke-width="0"/>
  <path id="rect75-6" d="m102.74 77.813-24.925 24.925 124.45 124.45 24.925-24.925z" stroke-width="0"/>
 </g>
</svg>
