<?xml version="1.0" encoding="UTF-8" standalone="no"?>
<svg
   xmlns:dc="http://purl.org/dc/elements/1.1/"
   xmlns:cc="http://creativecommons.org/ns#"
   xmlns:rdf="http://www.w3.org/1999/02/22-rdf-syntax-ns#"
   xmlns:svg="http://www.w3.org/2000/svg"
   xmlns="http://www.w3.org/2000/svg"
   xmlns:sodipodi="http://sodipodi.sourceforge.net/DTD/sodipodi-0.dtd"
   xmlns:inkscape="http://www.inkscape.org/namespaces/inkscape"
   id="checkmark"
   width="316"
   height="316"
   version="1.1"
   sodipodi:docname="undefined.svg"
   inkscape:version="1.0.1 (3bc2e813f5, 2020-09-07)">
  <defs
     id="defs9" />
  <sodipodi:namedview
     pagecolor="#ffffff"
     bordercolor="#666666"
     borderopacity="1"
     objecttolerance="10"
     gridtolerance="10"
     guidetolerance="10"
     inkscape:pageopacity="0"
     inkscape:pageshadow="2"
     inkscape:window-width="1366"
     inkscape:window-height="714"
     id="namedview7"
     showgrid="false"
     inkscape:pagecheckerboard="true"
     inkscape:zoom="1.4885246"
     inkscape:cx="146.76634"
     inkscape:cy="145.8113"
     inkscape:window-x="0"
     inkscape:window-y="0"
     inkscape:window-maximized="1"
     inkscape:current-layer="checkmark"
     fit-margin-top="0"
     fit-margin-left="0"
     fit-margin-right="0"
     fit-margin-bottom="0"
     inkscape:document-rotation="0" />
  <metadata
     id="metadata11">
    <rdf:RDF>
      <cc:Work
         rdf:about="">
        <dc:format>image/svg+xml</dc:format>
        <dc:type
           rdf:resource="http://purl.org/dc/dcmitype/StillImage" />
        <dc:title />
      </cc:Work>
    </rdf:RDF>
  </metadata>
  <ellipse
     style="fill:#000068;fill-opacity:1;stroke:#0000a5;stroke-width:29.7;stroke-miterlimit:4;stroke-dasharray:none;stroke-opacity:1"
     id="path836"
     cx="158"
     cy="158"
     rx="137.9785"
     ry="130.9613" />
  <g
     id="text12"
     aria-label="?"
     style="fill:#ffffff;stroke:#000000;stroke-opacity:1"
     transform="matrix(1.21,0,0,1.21,-26.502977,-26.528025)">
    <path
       id="path35"
       d="m 161.7,200.26 h -27.587 q 0.14831,-21.357 5.7843,-32.036 5.7843,-10.679 19.874,-25.214 10.085,-10.382 17.65,-19.429 7.7124,-9.1956 7.7124,-24.324 0,-15.276 -8.1573,-24.175 -8.1574,-8.8989 -23.582,-8.8989 -13.052,0 -23.286,7.1191 -10.234,6.9708 -10.382,22.396 h -27.438 q 0.29664,-25.065 17.798,-39.304 17.65,-14.238 43.308,-14.238 28.328,0 43.753,15.128 15.573,15.128 15.573,41.232 0,19.874 -11.569,35.447 -11.569,15.573 -25.659,28.773 -8.1574,7.5641 -10.975,17.056 -2.818,9.4922 -2.818,20.468 z m -28.773,47.016 q 0,-6.6742 4.1528,-11.272 4.1528,-4.5978 12.014,-4.5978 8.009,0 12.162,4.5978 4.153,4.5978 4.1528,11.272 0,6.3776 -4.1528,10.975 -4.1528,4.5974 -12.162,4.5978 -7.8607,0 -12.014,-4.5978 -4.1528,-4.5978 -4.1528,-10.975 z"
       fill="#0000ff"
       stroke-width="7.5938"
       style="fill:#ffffff;stroke:#000000;stroke-opacity:1" />
  </g>
</svg>
