<?xml version="1.0" encoding="UTF-8"?>
<svg id="checkmark" width="305px" height="305px" version="1.1" xmlns="http://www.w3.org/2000/svg" xmlns:cc="http://creativecommons.org/ns#" xmlns:dc="http://purl.org/dc/elements/1.1/" xmlns:rdf="http://www.w3.org/1999/02/22-rdf-syntax-ns#">
 <metadata id="metadata11">
  <rdf:RDF>
   <cc:Work rdf:about="">
    <dc:format>image/svg+xml</dc:format>
    <dc:type rdf:resource="http://purl.org/dc/dcmitype/StillImage"/>
    <dc:title/>
   </cc:Work>
  </rdf:RDF>
 </metadata>
 <g id="g112" fill="#00f">
  <path id="path2" d="m152.5 0.0010071c-84.09 0-152.5 68.411-152.5 152.5 0 84.089 68.412 152.5 152.5 152.5 84.089 0 152.5-68.411 152.5-152.5 0-84.089-68.411-152.5-152.5-152.5zm0 280c-70.305 0-127.5-57.195-127.5-127.5 0-70.304 57.197-127.5 127.5-127.5 70.304 0 127.5 57.196 127.5 127.5 0 70.305-57.196 127.5-127.5 127.5z"/>
  <g id="text12" aria-label="?">
   <path id="path35" d="m161.7 200.26h-27.587q0.14831-21.357 5.7843-32.036 5.7843-10.679 19.874-25.214 10.085-10.382 17.65-19.429 7.7124-9.1956 7.7124-24.324 0-15.276-8.1573-24.175-8.1574-8.8989-23.582-8.8989-13.052 0-23.286 7.1191-10.234 6.9708-10.382 22.396h-27.438q0.29664-25.065 17.798-39.304 17.65-14.238 43.308-14.238 28.328 0 43.753 15.128 15.573 15.128 15.573 41.232 0 19.874-11.569 35.447t-25.659 28.773q-8.1574 7.5641-10.975 17.056-2.818 9.4922-2.818 20.468zm-28.773 47.016q0-6.6742 4.1528-11.272 4.1528-4.5978 12.014-4.5978 8.009 0 12.162 4.5978t4.1528 11.272q0 6.3776-4.1528 10.975t-12.162 4.5978q-7.8607 0-12.014-4.5978-4.1528-4.5978-4.1528-10.975z" fill="#00f" stroke-width="7.5938"/>
  </g>
 </g>
</svg>
